<svg width="25" height="25" viewBox="0 0 25 25" fill="none" xmlns="http://www.w3.org/2000/svg">
<path d="M3.09774 8.25963L3.97774 6.73542C4.49774 5.83476 5.66386 5.51498 6.57319 6.03998C8.14069 6.94498 9.42155 6.20646 9.41847 4.3918C9.41814 3.35238 10.2716 2.49413 11.3196 2.4988L13.3129 2.50643C14.232 2.4944 14.9754 3.24689 14.9874 4.16605L14.9877 4.38559C14.9821 6.19525 16.2638 6.93525 17.8369 6.03059L18.0271 5.92105C18.8292 5.47189 19.8525 5.7394 20.3017 6.54143L21.3049 8.2638C21.833 9.16913 21.5165 10.3374 20.6161 10.8568C19.043 11.7615 19.0439 13.24 20.6114 14.145C21.5121 14.665 21.8319 15.8311 21.3069 16.7404L20.4269 18.2646C19.9069 19.1653 18.7407 19.4851 17.8314 18.9601C16.2639 18.0551 14.983 18.7936 14.9861 20.6082C14.9815 21.6563 14.133 22.5059 13.0849 22.5013L11.0917 22.4936C10.1726 22.5057 9.42923 21.7532 9.4172 20.834L9.41693 20.6145C9.42251 18.8048 8.14079 18.0648 6.56771 18.9695L6.37745 19.079C5.57542 19.5282 4.55207 19.2607 4.10291 18.4586L3.09969 16.7363C2.5716 15.8309 2.88814 14.6627 3.78847 14.1432C5.36155 13.2386 5.36069 11.7601 3.79319 10.8551C2.88386 10.3301 2.57774 9.16029 3.09774 8.25963Z" stroke="#BDBDBD" stroke-width="1.5" stroke-miterlimit="10" stroke-linecap="round" stroke-linejoin="round"/>
<path d="M15.4474 12.5C15.4474 10.7051 13.9924 9.25 12.1974 9.25C10.4025 9.25 8.94745 10.7051 8.94745 12.5C8.94745 14.2949 10.4025 15.75 12.1974 15.75C13.9924 15.75 15.4474 14.2949 15.4474 12.5Z" stroke="#BDBDBD" stroke-width="1.5"/>
</svg>
